<?xml version="1.0" encoding="UTF-8"?><svg id="Capa_1" xmlns="http://www.w3.org/2000/svg" viewBox="0 0 50 50"><defs><style>.cls-1{fill:#d3d3d2;}.cls-1,.cls-2,.cls-3{fill-rule:evenodd;}.cls-2{fill:#a3a3a2;}.cls-3{fill:#5a5a59;}</style></defs><path class="cls-1" d="M14.84,16.6c1.41-1.95,2.97-3.83,4.69-5.62,1.73-1.79,3.56-3.43,5.47-4.91l-2.04,8.19-8.12,2.33h0Z"/><path class="cls-3" d="M29.03,20.14c-2.4-.24-4.81-.66-7.21-1.26-2.41-.6-4.74-1.37-6.98-2.28l8.12-2.33,6.07,5.87h0Z"/><path class="cls-2" d="M25,6.08c.99,2.2,1.83,4.49,2.52,6.87,.69,2.39,1.19,4.79,1.51,7.19l-6.07-5.87,2.04-8.19h0Z"/><path class="cls-2" d="M11.97,33.44c-1.42-1.94-2.73-4.01-3.89-6.2-1.17-2.2-2.16-4.44-2.98-6.71l7.16,4.48-.29,8.44h0Z"/><path class="cls-3" d="M19.72,21.04c-.97,2.2-2.11,4.37-3.42,6.47-1.32,2.11-2.77,4.09-4.33,5.93l.3-8.44,7.46-3.96h0Z"/><path class="cls-1" d="M5.11,20.53c2.39-.26,4.84-.36,7.32-.27,2.49,.09,4.92,.35,7.3,.78l-7.46,3.96-7.16-4.47h0Z"/><path class="cls-3" d="M27.11,41.38c-2.29,.75-4.66,1.35-7.1,1.78-2.45,.43-4.89,.68-7.31,.76l6.47-5.43,7.93,2.89h0Z"/><path class="cls-2" d="M17.71,30.17c1.8,1.61,3.5,3.36,5.09,5.26,1.6,1.91,3.03,3.89,4.31,5.95l-7.94-2.89-1.47-8.32h0Z"/><path class="cls-1" d="M12.7,43.92c.49-2.36,1.16-4.71,2-7.04,.85-2.34,1.86-4.58,3-6.7l1.47,8.32-6.47,5.43h0Z"/><path class="cls-2" d="M39.33,29.44c0,2.41-.15,4.85-.5,7.3-.35,2.46-.86,4.86-1.54,7.18l-3.16-7.83,5.2-6.65h0Z"/><path class="cls-1" d="M25.76,34.91c2.08-1.21,4.27-2.29,6.57-3.22,2.31-.93,4.64-1.68,6.99-2.26l-5.2,6.65-8.36-1.18h0Z"/><path class="cls-3" d="M37.29,43.92c-2.09-1.2-4.12-2.56-6.08-4.08-1.96-1.53-3.78-3.18-5.45-4.92l8.36,1.18,3.16,7.83h0Z"/><path class="cls-2" d="M31.75,14.12c2.29,.74,4.56,1.64,6.79,2.73,2.24,1.09,4.36,2.32,6.35,3.68l-8.42,.59-4.72-7h0Z"/><path class="cls-1" d="M32.77,28.71c-.51-2.35-.86-4.77-1.03-7.25-.17-2.48-.17-4.93,.01-7.34l4.72,7-3.7,7.59h0Z"/><path class="cls-3" d="M44.89,20.54c-1.78,1.62-3.7,3.13-5.76,4.52-2.06,1.39-4.19,2.61-6.37,3.66l3.7-7.59,8.42-.59h0Z"/></svg>